<mxfile host="app.diagrams.net" modified="2021-10-20T03:34:56.974Z" agent="5.0 (Windows NT 10.0; Win64; x64) AppleWebKit/537.36 (KHTML, like Gecko) Chrome/94.0.4606.81 Safari/537.36" etag="sqqoe5qcIG6I9LwIcKVX" version="15.5.6" type="gitlab">
  <diagram id="d4SooKeEv5i1dyPue6r-" name="Page-1">
    <mxGraphModel dx="1592" dy="1044" grid="1" gridSize="10" guides="1" tooltips="1" connect="1" arrows="1" fold="1" page="1" pageScale="1" pageWidth="827" pageHeight="1169" math="0" shadow="0">
      <root>
        <mxCell id="0" />
        <mxCell id="1" parent="0" />
        <mxCell id="OFkYmNsgOI964CP6vlzJ-17" value="AWS Cloud" style="points=[[0,0],[0.25,0],[0.5,0],[0.75,0],[1,0],[1,0.25],[1,0.5],[1,0.75],[1,1],[0.75,1],[0.5,1],[0.25,1],[0,1],[0,0.75],[0,0.5],[0,0.25]];outlineConnect=0;gradientColor=none;html=1;whiteSpace=wrap;fontSize=12;fontStyle=0;shape=mxgraph.aws4.group;grIcon=mxgraph.aws4.group_aws_cloud;strokeColor=#232F3E;fillColor=none;verticalAlign=top;align=left;spacingLeft=30;fontColor=#232F3E;dashed=0;" vertex="1" parent="1">
          <mxGeometry x="486.75" y="240" width="970" height="554.5" as="geometry" />
        </mxCell>
        <mxCell id="OFkYmNsgOI964CP6vlzJ-23" value="VPC" style="points=[[0,0],[0.25,0],[0.5,0],[0.75,0],[1,0],[1,0.25],[1,0.5],[1,0.75],[1,1],[0.75,1],[0.5,1],[0.25,1],[0,1],[0,0.75],[0,0.5],[0,0.25]];outlineConnect=0;gradientColor=none;html=1;whiteSpace=wrap;fontSize=12;fontStyle=0;shape=mxgraph.aws4.group;grIcon=mxgraph.aws4.group_vpc;strokeColor=#248814;fillColor=none;verticalAlign=top;align=left;spacingLeft=30;fontColor=#AAB7B8;dashed=0;" vertex="1" parent="1">
          <mxGeometry x="556.75" y="290" width="860" height="410" as="geometry" />
        </mxCell>
        <mxCell id="OFkYmNsgOI964CP6vlzJ-21" value="Availability Zone" style="fillColor=none;strokeColor=#147EBA;dashed=1;verticalAlign=top;fontStyle=0;fontColor=#147EBA;" vertex="1" parent="1">
          <mxGeometry x="574.75" y="508" width="298" height="177" as="geometry" />
        </mxCell>
        <mxCell id="OFkYmNsgOI964CP6vlzJ-22" value="Public subnet" style="points=[[0,0],[0.25,0],[0.5,0],[0.75,0],[1,0],[1,0.25],[1,0.5],[1,0.75],[1,1],[0.75,1],[0.5,1],[0.25,1],[0,1],[0,0.75],[0,0.5],[0,0.25]];outlineConnect=0;gradientColor=none;html=1;whiteSpace=wrap;fontSize=12;fontStyle=0;shape=mxgraph.aws4.group;grIcon=mxgraph.aws4.group_security_group;grStroke=0;strokeColor=#248814;fillColor=#E9F3E6;verticalAlign=top;align=left;spacingLeft=30;fontColor=#248814;dashed=0;" vertex="1" parent="1">
          <mxGeometry x="584.75" y="532" width="280" height="138" as="geometry" />
        </mxCell>
        <mxCell id="OFkYmNsgOI964CP6vlzJ-24" value="Availability Zone" style="fillColor=none;strokeColor=#147EBA;dashed=1;verticalAlign=top;fontStyle=0;fontColor=#147EBA;" vertex="1" parent="1">
          <mxGeometry x="1041.75" y="320" width="325" height="157" as="geometry" />
        </mxCell>
        <mxCell id="OFkYmNsgOI964CP6vlzJ-25" value="Availability Zone" style="fillColor=none;strokeColor=#147EBA;dashed=1;verticalAlign=top;fontStyle=0;fontColor=#147EBA;" vertex="1" parent="1">
          <mxGeometry x="1041.75" y="508" width="325" height="157" as="geometry" />
        </mxCell>
        <mxCell id="OFkYmNsgOI964CP6vlzJ-26" value="Private subnet" style="points=[[0,0],[0.25,0],[0.5,0],[0.75,0],[1,0],[1,0.25],[1,0.5],[1,0.75],[1,1],[0.75,1],[0.5,1],[0.25,1],[0,1],[0,0.75],[0,0.5],[0,0.25]];outlineConnect=0;gradientColor=none;html=1;whiteSpace=wrap;fontSize=12;fontStyle=0;shape=mxgraph.aws4.group;grIcon=mxgraph.aws4.group_security_group;grStroke=0;strokeColor=#147EBA;fillColor=#E6F2F8;verticalAlign=top;align=left;spacingLeft=30;fontColor=#147EBA;dashed=0;" vertex="1" parent="1">
          <mxGeometry x="1066.75" y="532" width="290" height="118" as="geometry" />
        </mxCell>
        <mxCell id="OFkYmNsgOI964CP6vlzJ-27" value="Private subnet" style="points=[[0,0],[0.25,0],[0.5,0],[0.75,0],[1,0],[1,0.25],[1,0.5],[1,0.75],[1,1],[0.75,1],[0.5,1],[0.25,1],[0,1],[0,0.75],[0,0.5],[0,0.25]];outlineConnect=0;gradientColor=none;html=1;whiteSpace=wrap;fontSize=12;fontStyle=0;shape=mxgraph.aws4.group;grIcon=mxgraph.aws4.group_security_group;grStroke=0;strokeColor=#147EBA;fillColor=#E6F2F8;verticalAlign=top;align=left;spacingLeft=30;fontColor=#147EBA;dashed=0;" vertex="1" parent="1">
          <mxGeometry x="1066.75" y="350" width="291.5" height="118" as="geometry" />
        </mxCell>
        <mxCell id="OFkYmNsgOI964CP6vlzJ-5" value="" style="outlineConnect=0;dashed=0;verticalLabelPosition=bottom;verticalAlign=top;align=center;html=1;shape=mxgraph.aws3.mysql_db_instance_2;fillColor=#2E73B8;gradientColor=none;" vertex="1" parent="1">
          <mxGeometry x="1146.75" y="565" width="60" height="63" as="geometry" />
        </mxCell>
        <mxCell id="OFkYmNsgOI964CP6vlzJ-6" value="" style="outlineConnect=0;dashed=0;verticalLabelPosition=bottom;verticalAlign=top;align=center;html=1;shape=mxgraph.aws3.rds;fillColor=#2E73B8;gradientColor=none;" vertex="1" parent="1">
          <mxGeometry x="1226.75" y="368.5" width="72" height="81" as="geometry" />
        </mxCell>
        <mxCell id="OFkYmNsgOI964CP6vlzJ-28" value="" style="outlineConnect=0;dashed=0;verticalLabelPosition=bottom;verticalAlign=top;align=center;html=1;shape=mxgraph.aws3.mysql_db_instance_2;fillColor=#2E73B8;gradientColor=none;" vertex="1" parent="1">
          <mxGeometry x="1146.75" y="377.5" width="60" height="63" as="geometry" />
        </mxCell>
        <mxCell id="OFkYmNsgOI964CP6vlzJ-29" value="" style="outlineConnect=0;dashed=0;verticalLabelPosition=bottom;verticalAlign=top;align=center;html=1;shape=mxgraph.aws3.rds;fillColor=#2E73B8;gradientColor=none;" vertex="1" parent="1">
          <mxGeometry x="1226.75" y="566" width="72" height="81" as="geometry" />
        </mxCell>
        <mxCell id="OFkYmNsgOI964CP6vlzJ-31" value="" style="outlineConnect=0;dashed=0;verticalLabelPosition=bottom;verticalAlign=top;align=center;html=1;shape=mxgraph.aws3.instance;fillColor=#F58534;gradientColor=none;" vertex="1" parent="1">
          <mxGeometry x="766.75" y="575" width="60" height="63" as="geometry" />
        </mxCell>
        <mxCell id="OFkYmNsgOI964CP6vlzJ-33" value="" style="outlineConnect=0;dashed=0;verticalLabelPosition=bottom;verticalAlign=top;align=center;html=1;shape=mxgraph.aws3.cloud_2;fillColor=#F58534;gradientColor=none;" vertex="1" parent="1">
          <mxGeometry x="446.75" y="457.5" width="75" height="75" as="geometry" />
        </mxCell>
        <mxCell id="OFkYmNsgOI964CP6vlzJ-50" style="edgeStyle=orthogonalEdgeStyle;rounded=0;orthogonalLoop=1;jettySize=auto;html=1;exitX=0.5;exitY=1;exitDx=0;exitDy=0;exitPerimeter=0;entryX=0.5;entryY=0;entryDx=0;entryDy=0;entryPerimeter=0;" edge="1" parent="1" source="OFkYmNsgOI964CP6vlzJ-34" target="OFkYmNsgOI964CP6vlzJ-35">
          <mxGeometry relative="1" as="geometry" />
        </mxCell>
        <mxCell id="OFkYmNsgOI964CP6vlzJ-34" value="" style="outlineConnect=0;dashed=0;verticalLabelPosition=bottom;verticalAlign=top;align=center;html=1;shape=mxgraph.aws3.users;fillColor=#D2D3D3;gradientColor=none;" vertex="1" parent="1">
          <mxGeometry x="216.75" y="240" width="66" height="63" as="geometry" />
        </mxCell>
        <mxCell id="OFkYmNsgOI964CP6vlzJ-51" style="edgeStyle=orthogonalEdgeStyle;rounded=0;orthogonalLoop=1;jettySize=auto;html=1;exitX=0.5;exitY=1;exitDx=0;exitDy=0;exitPerimeter=0;entryX=0.38;entryY=0.025;entryDx=0;entryDy=0;entryPerimeter=0;" edge="1" parent="1" source="OFkYmNsgOI964CP6vlzJ-35" target="OFkYmNsgOI964CP6vlzJ-36">
          <mxGeometry relative="1" as="geometry" />
        </mxCell>
        <mxCell id="OFkYmNsgOI964CP6vlzJ-35" value="" style="outlineConnect=0;dashed=0;verticalLabelPosition=bottom;verticalAlign=top;align=center;html=1;shape=mxgraph.aws3.management_console;fillColor=#D2D3D3;gradientColor=none;" vertex="1" parent="1">
          <mxGeometry x="210" y="350" width="63" height="63" as="geometry" />
        </mxCell>
        <mxCell id="OFkYmNsgOI964CP6vlzJ-52" style="edgeStyle=orthogonalEdgeStyle;rounded=0;orthogonalLoop=1;jettySize=auto;html=1;exitX=1;exitY=0.7;exitDx=0;exitDy=0;exitPerimeter=0;entryX=0.028;entryY=0.491;entryDx=0;entryDy=0;entryPerimeter=0;" edge="1" parent="1" source="OFkYmNsgOI964CP6vlzJ-36" target="OFkYmNsgOI964CP6vlzJ-49">
          <mxGeometry relative="1" as="geometry" />
        </mxCell>
        <mxCell id="OFkYmNsgOI964CP6vlzJ-36" value="" style="outlineConnect=0;dashed=0;verticalLabelPosition=bottom;verticalAlign=top;align=center;html=1;shape=mxgraph.aws3.internet_2;fillColor=#D2D3D3;gradientColor=none;" vertex="1" parent="1">
          <mxGeometry x="210" y="468" width="79.5" height="54" as="geometry" />
        </mxCell>
        <mxCell id="OFkYmNsgOI964CP6vlzJ-37" value="" style="rounded=1;arcSize=10;dashed=1;strokeColor=#ff0000;fillColor=none;gradientColor=none;dashPattern=8 4;strokeWidth=2;" vertex="1" parent="1">
          <mxGeometry x="1056.75" y="530" width="300" height="130" as="geometry" />
        </mxCell>
        <mxCell id="OFkYmNsgOI964CP6vlzJ-45" style="edgeStyle=orthogonalEdgeStyle;rounded=0;orthogonalLoop=1;jettySize=auto;html=1;exitX=1;exitY=0.5;exitDx=0;exitDy=0;exitPerimeter=0;entryX=0;entryY=0.5;entryDx=0;entryDy=0;" edge="1" parent="1" source="OFkYmNsgOI964CP6vlzJ-42" target="OFkYmNsgOI964CP6vlzJ-37">
          <mxGeometry relative="1" as="geometry" />
        </mxCell>
        <mxCell id="OFkYmNsgOI964CP6vlzJ-46" style="edgeStyle=orthogonalEdgeStyle;rounded=0;orthogonalLoop=1;jettySize=auto;html=1;exitX=1;exitY=0.5;exitDx=0;exitDy=0;exitPerimeter=0;entryX=0;entryY=0.5;entryDx=0;entryDy=0;" edge="1" parent="1" source="OFkYmNsgOI964CP6vlzJ-42" target="OFkYmNsgOI964CP6vlzJ-43">
          <mxGeometry relative="1" as="geometry" />
        </mxCell>
        <mxCell id="OFkYmNsgOI964CP6vlzJ-42" value="" style="outlineConnect=0;dashed=0;verticalLabelPosition=bottom;verticalAlign=top;align=center;html=1;shape=mxgraph.aws3.classic_load_balancer;fillColor=#F58536;gradientColor=none;" vertex="1" parent="1">
          <mxGeometry x="826.75" y="369" width="69" height="72" as="geometry" />
        </mxCell>
        <mxCell id="OFkYmNsgOI964CP6vlzJ-43" value="" style="rounded=1;arcSize=10;dashed=1;strokeColor=#ff0000;fillColor=none;gradientColor=none;dashPattern=8 4;strokeWidth=2;" vertex="1" parent="1">
          <mxGeometry x="1061.5" y="340" width="300" height="130" as="geometry" />
        </mxCell>
        <mxCell id="OFkYmNsgOI964CP6vlzJ-44" value="" style="rounded=1;arcSize=10;dashed=1;strokeColor=#ff0000;fillColor=none;gradientColor=none;dashPattern=8 4;strokeWidth=2;" vertex="1" parent="1">
          <mxGeometry x="574.75" y="530" width="292" height="140" as="geometry" />
        </mxCell>
        <mxCell id="OFkYmNsgOI964CP6vlzJ-48" style="edgeStyle=orthogonalEdgeStyle;rounded=0;orthogonalLoop=1;jettySize=auto;html=1;exitX=1;exitY=0.5;exitDx=0;exitDy=0;exitPerimeter=0;entryX=0;entryY=0.5;entryDx=0;entryDy=0;entryPerimeter=0;" edge="1" parent="1" source="OFkYmNsgOI964CP6vlzJ-47" target="OFkYmNsgOI964CP6vlzJ-42">
          <mxGeometry relative="1" as="geometry" />
        </mxCell>
        <mxCell id="OFkYmNsgOI964CP6vlzJ-47" value="" style="outlineConnect=0;dashed=0;verticalLabelPosition=bottom;verticalAlign=top;align=center;html=1;shape=mxgraph.aws3.internet_gateway;fillColor=#F58536;gradientColor=none;" vertex="1" parent="1">
          <mxGeometry x="521.75" y="368.5" width="69" height="72" as="geometry" />
        </mxCell>
        <mxCell id="OFkYmNsgOI964CP6vlzJ-53" style="edgeStyle=orthogonalEdgeStyle;rounded=0;orthogonalLoop=1;jettySize=auto;html=1;exitX=1;exitY=0.5;exitDx=0;exitDy=0;exitPerimeter=0;" edge="1" parent="1" source="OFkYmNsgOI964CP6vlzJ-49" target="OFkYmNsgOI964CP6vlzJ-33">
          <mxGeometry relative="1" as="geometry" />
        </mxCell>
        <mxCell id="OFkYmNsgOI964CP6vlzJ-49" value="" style="outlineConnect=0;dashed=0;verticalLabelPosition=bottom;verticalAlign=top;align=center;html=1;shape=mxgraph.aws3.route_53;fillColor=#F58536;gradientColor=none;" vertex="1" parent="1">
          <mxGeometry x="346.75" y="452.25" width="70.5" height="85.5" as="geometry" />
        </mxCell>
      </root>
    </mxGraphModel>
  </diagram>
</mxfile>
